<svg width="52" height="64" viewBox="0 0 52 64" fill="none" xmlns="http://www.w3.org/2000/svg">
<mask id="mask0_741_268" style="mask-type:luminance" maskUnits="userSpaceOnUse" x="1" y="1" width="51" height="62">
<path d="M26.06 62.6483C12.6226 62.7001 1.04703 53.7006 1.00019 40.7852C0.926588 20.2218 22.3046 19.0291 21.1771 1C21.1771 1 36.7858 5.62856 36.309 22.2174C36.309 22.2174 38.9169 18.4988 38.8985 13.3902C39.044 13.4872 39.1895 13.5859 39.3351 13.6863C46.8307 18.9271 52.2371 30.4592 51.205 41.6216C49.9722 54.9485 38.1892 62.6031 26.0616 62.6499" fill="white"/>
</mask>
<g mask="url(#mask0_741_268)">
<path d="M52.1233 0.880278L0.851562 1.07715L1.08834 62.7433L52.36 62.5465L52.1233 0.880278Z" fill="white"/>
</g>
<path fill-rule="evenodd" clip-rule="evenodd" d="M26.06 62.6483C12.6226 62.7001 1.04703 53.7006 1.00019 40.7852C0.926588 20.2218 22.3046 19.0291 21.1771 1C21.1771 1 36.7858 5.62856 36.309 22.2174C36.309 22.2174 38.9169 18.4988 38.8985 13.3902C39.044 13.4872 39.1895 13.5859 39.3351 13.6863C46.8307 18.9271 52.2371 30.4592 51.205 41.6216C49.9722 54.9485 38.1892 62.6031 26.0616 62.6499" fill="#FFFAF0"/>
<mask id="mask1_741_268" style="mask-type:luminance" maskUnits="userSpaceOnUse" x="1" y="1" width="51" height="62">
<path d="M26.06 62.6483C12.6226 62.7001 1.04703 53.7006 1.00019 40.7852C0.926588 20.2218 22.3046 19.0291 21.1771 1C21.1771 1 36.7858 5.62856 36.309 22.2174C36.309 22.2174 38.9169 18.4988 38.8985 13.3902C39.044 13.4872 39.1895 13.5859 39.3351 13.6863C46.8307 18.9271 52.2371 30.4592 51.205 41.6216C49.9722 54.9485 38.1892 62.6031 26.0616 62.6499" fill="white"/>
</mask>
<g mask="url(#mask1_741_268)">
<path d="M52.1233 0.880278L0.851562 1.07715L1.08834 62.7433L52.36 62.5465L52.1233 0.880278Z" fill="#FFFAF0" stroke="#43423D" stroke-miterlimit="10"/>
</g>
<path d="M26.06 62.6483C12.6226 62.7001 1.04703 53.7006 1.00019 40.7852C0.926588 20.2218 22.3046 19.0291 21.1771 1C21.1771 1 36.7858 5.62856 36.309 22.2174C36.309 22.2174 38.9169 18.4988 38.8985 13.3902C39.044 13.4872 39.1895 13.5859 39.3351 13.6863C46.8307 18.9271 52.2371 30.4592 51.205 41.6216C49.9722 54.9485 38.1892 62.6031 26.0616 62.6499" stroke="#43423D" stroke-miterlimit="10"/>
<mask id="mask2_741_268" style="mask-type:luminance" maskUnits="userSpaceOnUse" x="1" y="1" width="51" height="62">
<path d="M26.06 62.6483C12.6226 62.7001 1.04703 53.7006 1.00019 40.7852C0.926588 20.2218 22.3046 19.0291 21.1771 1C21.1771 1 36.7858 5.62856 36.309 22.2174C36.309 22.2174 38.9169 18.4988 38.8985 13.3902C39.044 13.4872 39.1895 13.5859 39.3351 13.6863C46.8307 18.9271 52.2371 30.4592 51.205 41.6216C49.9722 54.9485 38.1892 62.6031 26.0616 62.6499" fill="white"/>
</mask>
<g mask="url(#mask2_741_268)">
<path d="M52.1233 0.880278L0.851562 1.07715L1.08834 62.7433L52.36 62.5465L52.1233 0.880278Z" stroke="#43423D" stroke-miterlimit="10"/>
</g>
<path fill-rule="evenodd" clip-rule="evenodd" d="M48.1203 42.6839C48.127 44.7113 47.7523 46.553 47.0648 48.2074C46.9577 43.8615 44.6711 40.0359 41.0428 37.6054C38.1222 35.6499 30.118 33.8065 29.9557 39.4237C29.8236 44.0204 35.5294 43.6725 39.1459 45.1629C44.2629 47.2706 45.1829 52.8527 39.9522 55.7901C31.8359 60.35 19.4791 60.2998 11.5101 55.6094C6.60217 52.7205 8.10766 47.2154 12.7446 45.2633C16.3494 43.7461 22.0586 44.0505 21.893 39.4538C21.6906 33.84 13.6997 35.7436 10.7925 37.7208C7.18095 40.1781 4.92103 44.0221 4.84576 48.368C4.14654 46.7186 3.75846 44.8819 3.7501 42.8529C3.72835 36.7539 7.34488 31.3409 12.9202 28.0053C15.0379 26.7391 19.5026 25.0395 21.5367 26.9231C22.9401 28.2228 25.824 35.0728 27.761 36.0965C27.761 36.0965 26.5115 31.2522 29.4455 28.3901C35.7502 22.2376 48.0869 33.0136 48.122 42.6822L48.1203 42.6839Z" fill="white" stroke="#43423D" stroke-miterlimit="10"/>
<path d="M31.7776 51.832C30.1717 54.7577 26.4331 55.3013 23.9657 53.8092C22.4787 52.911 21.4532 51.2716 21.6339 48.9682C24.7737 50.6226 29.7485 51.2265 32.5571 48.5718C32.5471 49.8765 32.2593 50.9605 31.7776 51.8303V51.832Z" fill="#43423D"/>
<path d="M31.4245 52.1066C29.5059 54.7429 25.7906 54.7847 23.5625 53.0116C25.155 51.031 27.3262 52.3073 27.3262 52.3073C29.1512 50.8654 31.3543 52.0648 31.4262 52.1066H31.4245Z" fill="#F37E80"/>
<path d="M23.098 42.5359C24.8343 41.4804 26.7831 41.3114 28.946 42.0307C29.5682 42.2381 29.8777 42.9641 29.5917 43.5697C29.1383 44.5248 28.2651 45.8363 26.7195 46.4602C26.4954 46.5505 26.2495 46.5589 26.0186 46.4853C25.3378 46.2712 23.8323 45.6506 22.7734 44.1367C22.4038 43.6098 22.5543 42.8638 23.098 42.5342V42.5359Z" fill="#43423D"/>
<path d="M27.6698 42.6369C27.7016 42.943 26.8652 43.0133 25.9887 43.1086C25.1122 43.204 24.525 43.2893 24.4932 42.9815C24.4615 42.6754 25.1473 42.3492 26.0255 42.2538C26.902 42.1585 27.6397 42.3308 27.6715 42.6369H27.6698Z" fill="white"/>
<path d="M25.1475 54.6955C24.6189 54.5383 24.1137 54.3125 23.6487 54.0214C21.889 52.9157 21.0158 51.0924 21.1897 48.8893C21.1981 48.7739 21.2817 48.6802 21.4122 48.6401C21.541 48.5999 21.725 48.5799 21.8321 48.6869C24.7159 50.2175 28.4312 50.6257 32.6934 48.262C32.9694 48.2369 32.9995 48.4828 32.9995 48.6334C32.9777 51.6762 31.4053 53.9495 28.7925 54.7106C27.5998 55.0585 26.3168 55.0434 25.1475 54.6955ZM22.6032 49.8328C22.7655 51.5373 23.6186 52.8471 25.0371 53.553C26.3168 54.1903 27.9143 54.2338 29.311 53.6701C31.2832 52.8739 32.4475 51.084 32.5395 48.7823C29.9601 50.8431 25.7915 50.91 22.6032 49.8328Z" fill="#43423D"/>
<path d="M23.4535 53.2628C23.4301 53.2527 23.4067 53.2394 23.3849 53.226C23.2126 53.1156 23.1524 52.9282 23.2494 52.8078C24.6496 51.0664 26.5247 51.6486 27.2122 51.948C29.1878 50.5596 31.5497 51.8593 31.5732 51.8727C31.7521 51.9731 31.8308 52.1604 31.7488 52.2892C31.6668 52.418 31.4577 52.4414 31.2771 52.3411C31.1918 52.2942 29.248 51.2404 27.5986 52.5435C27.4933 52.6271 27.316 52.6238 27.1671 52.5368C27.0918 52.4933 25.2702 51.4712 23.8717 53.2109C23.7881 53.3163 23.6124 53.3347 23.4552 53.2644L23.4535 53.2628Z" fill="#43423D"/>
<path d="M13.1528 34.1504C13.9557 32.6282 15.9129 31.8453 17.4919 32.5312C18.136 32.8155 19.4491 33.6937 18.6579 34.4264C18.4806 34.5669 18.2581 34.5903 18.0607 34.5217C17.3381 34.3076 16.7409 34.1521 16.04 34.2441C15.4194 34.3227 14.7586 34.6204 14.1815 34.9165C14.1397 34.9332 14.0895 34.9667 14.0628 34.9667L13.6513 34.9868C13.2347 35.0202 12.9387 34.5151 13.1545 34.1504H13.1528Z" fill="#43423D"/>
<path d="M31.5043 33.4219C32.3056 31.8997 34.2644 31.1168 35.8435 31.8026C36.4875 32.087 37.8007 32.9652 37.0094 33.6979C36.8321 33.8384 36.6096 33.8618 36.4123 33.7932C35.6896 33.5791 35.0924 33.4236 34.3915 33.5156C33.7709 33.5942 33.1102 33.8919 32.5331 34.188C32.4913 34.2047 32.4411 34.2382 32.4143 34.2382L32.0028 34.2583C31.5863 34.2917 31.2902 33.7866 31.506 33.4219H31.5043Z" fill="#43423D"/>
<path d="M17.4598 44.024C19.0017 44.024 20.2517 42.3284 20.2517 40.2369C20.2517 38.1453 19.0017 36.4497 17.4598 36.4497C15.9179 36.4497 14.668 38.1453 14.668 40.2369C14.668 42.3284 15.9179 44.024 17.4598 44.024Z" fill="#43423D"/>
<path d="M19.1969 39.9858C19.2208 39.1723 18.8831 38.5023 18.4426 38.4893C18.0021 38.4764 17.6257 39.1255 17.6018 39.939C17.5779 40.7526 17.9157 41.4226 18.3562 41.4355C18.7967 41.4484 19.1731 40.7994 19.1969 39.9858Z" fill="white"/>
<g opacity="0.35">
<path d="M16.7787 42.8553C17.0702 42.7631 17.1508 42.1956 16.9586 41.5879C16.7663 40.9801 16.3742 40.5621 16.0826 40.6543C15.791 40.7465 15.7105 41.314 15.9027 41.9218C16.0949 42.5296 16.4871 42.9475 16.7787 42.8553Z" fill="white"/>
</g>
<path d="M34.6627 43.5651C36.2016 43.4678 37.342 41.6974 37.21 39.6109C37.078 37.5244 35.7235 35.9119 34.1847 36.0093C32.6459 36.1066 31.5054 37.877 31.6374 39.9635C31.7695 42.05 33.1239 43.6625 34.6627 43.5651Z" fill="#43423D"/>
<path d="M33.2755 41.0802C33.7141 41.0381 34.0066 40.3471 33.9287 39.5369C33.8508 38.7268 33.4321 38.1042 32.9935 38.1463C32.5548 38.1885 32.2623 38.8794 32.3402 39.6896C32.4181 40.4998 32.8368 41.1224 33.2755 41.0802Z" fill="white"/>
<g opacity="0.35">
<path d="M36.2638 41.3777C36.4147 40.7583 36.2968 40.1977 36.0006 40.1256C35.7044 40.0534 35.342 40.497 35.1911 41.1164C35.0403 41.7357 35.1581 42.2963 35.4543 42.3684C35.7505 42.4406 36.1129 41.997 36.2638 41.3777Z" fill="white"/>
</g>
</svg>
